<svg width="186" height="51" viewBox="0 0 186 51" fill="none" xmlns="http://www.w3.org/2000/svg">
<path d="M35.8516 0.273438V11.0254H34.7969C34.1719 8.54492 33.4785 6.76758 32.7168 5.69336C31.9551 4.59961 30.9102 3.73047 29.582 3.08594C28.8398 2.73438 27.541 2.55859 25.6855 2.55859H22.7266V33.2031C22.7266 35.2344 22.834 36.5039 23.0488 37.0117C23.2832 37.5195 23.7227 37.9688 24.3672 38.3594C25.0312 38.7305 25.9297 38.916 27.0625 38.916H28.3809V40H7.58008V38.916H8.89844C10.0508 38.916 10.9785 38.7109 11.6816 38.3008C12.1895 38.0273 12.5898 37.5586 12.8828 36.8945C13.0977 36.4258 13.2051 35.1953 13.2051 33.2031V2.55859H10.334C7.6582 2.55859 5.71484 3.125 4.50391 4.25781C2.80469 5.83984 1.73047 8.0957 1.28125 11.0254H0.167969V0.273438H35.8516ZM75.9004 26.0547L74.4062 40H39.1328V38.916H40.4512C41.6035 38.916 42.5312 38.7109 43.2344 38.3008C43.7422 38.0273 44.1328 37.5586 44.4062 36.8945C44.6211 36.4258 44.7285 35.1953 44.7285 33.2031V7.07031C44.7285 5.03906 44.6211 3.76953 44.4062 3.26172C44.1914 2.75391 43.752 2.31445 43.0879 1.94336C42.4434 1.55273 41.5645 1.35742 40.4512 1.35742H39.1328V0.273438H60.3145V1.35742H58.5859C57.4336 1.35742 56.5059 1.5625 55.8027 1.97266C55.2949 2.24609 54.8945 2.71484 54.6016 3.37891C54.3867 3.84766 54.2793 5.07812 54.2793 7.07031V32.3828C54.2793 34.4141 54.3965 35.7129 54.6309 36.2793C54.8652 36.8262 55.3242 37.2363 56.0078 37.5098C56.4961 37.6855 57.6777 37.7734 59.5527 37.7734H62.8633C64.9727 37.7734 66.7305 37.4023 68.1367 36.6602C69.543 35.918 70.7539 34.7461 71.7695 33.1445C72.8047 31.543 73.7812 29.1797 74.6992 26.0547H75.9004ZM88.0293 11.8164C89.377 11.8164 90.5195 12.2852 91.457 13.2227C92.3945 14.1602 92.8633 15.3027 92.8633 16.6504C92.8633 17.998 92.3848 19.1504 91.4277 20.1074C90.4902 21.0449 89.3574 21.5137 88.0293 21.5137C86.6816 21.5137 85.5293 21.0449 84.5723 20.1074C83.6348 19.1504 83.166 17.998 83.166 16.6504C83.166 15.3027 83.6348 14.1602 84.5723 13.2227C85.5098 12.2852 86.6621 11.8164 88.0293 11.8164ZM83.5469 50.5176V49.2285C85.8125 48.252 87.4531 46.9824 88.4688 45.4199C89.5039 43.877 90.0215 42.2949 90.0215 40.6738C90.0215 40.3418 89.9531 40.0879 89.8164 39.9121C89.6797 39.7559 89.543 39.6777 89.4062 39.6777C89.2891 39.6777 89.1133 39.7461 88.8789 39.8828C88.3125 40.2148 87.6094 40.3809 86.7695 40.3809C85.6172 40.3809 84.6113 39.9316 83.752 39.0332C82.9121 38.1348 82.4922 37.0801 82.4922 35.8691C82.4922 34.5801 82.9805 33.4473 83.957 32.4707C84.9336 31.4941 86.1152 31.0059 87.502 31.0059C89.1816 31.0059 90.6172 31.6602 91.8086 32.9688C93 34.2578 93.5957 36.0352 93.5957 38.3008C93.5957 41.0938 92.7461 43.5742 91.0469 45.7422C89.3672 47.9102 86.8672 49.502 83.5469 50.5176ZM98.8105 40V38.916H100.129C101.281 38.916 102.16 38.7402 102.766 38.3887C103.391 38.0176 103.85 37.5195 104.143 36.8945C104.318 36.4844 104.406 35.2539 104.406 33.2031V7.07031C104.406 5.03906 104.299 3.76953 104.084 3.26172C103.869 2.75391 103.43 2.31445 102.766 1.94336C102.121 1.55273 101.242 1.35742 100.129 1.35742H98.8105V0.273438H116.594C121.34 0.273438 125.158 0.917969 128.049 2.20703C131.584 3.78906 134.26 6.18164 136.076 9.38477C137.912 12.5879 138.83 16.2109 138.83 20.2539C138.83 23.0469 138.381 25.625 137.482 27.9883C136.584 30.332 135.422 32.2754 133.996 33.8184C132.57 35.3418 130.92 36.5723 129.045 37.5098C127.189 38.4277 124.914 39.1406 122.219 39.6484C121.027 39.8828 119.152 40 116.594 40H98.8105ZM113.957 2.5293V33.5254C113.957 35.166 114.035 36.1719 114.191 36.543C114.348 36.9141 114.611 37.1973 114.982 37.3926C115.51 37.6855 116.271 37.832 117.268 37.832C120.529 37.832 123.02 36.7188 124.738 34.4922C127.082 31.4844 128.254 26.8164 128.254 20.4883C128.254 15.3906 127.453 11.3184 125.852 8.27148C124.582 5.88867 122.951 4.26758 120.959 3.4082C119.553 2.80273 117.219 2.50977 113.957 2.5293ZM157.316 21.8945V33.0273C157.316 35.1758 157.443 36.5332 157.697 37.0996C157.971 37.6465 158.439 38.0859 159.104 38.418C159.768 38.75 161.008 38.916 162.824 38.916V40H142.492V38.916C144.328 38.916 145.568 38.75 146.213 38.418C146.877 38.0664 147.336 37.6172 147.59 37.0703C147.863 36.5234 148 35.1758 148 33.0273V7.24609C148 5.09766 147.863 3.75 147.59 3.20312C147.336 2.63672 146.877 2.1875 146.213 1.85547C145.549 1.52344 144.309 1.35742 142.492 1.35742V0.273438H160.949C165.754 0.273438 169.27 0.605469 171.496 1.26953C173.723 1.93359 175.539 3.16406 176.945 4.96094C178.352 6.73828 179.055 8.82812 179.055 11.2305C179.055 14.1602 178 16.582 175.891 18.4961C174.543 19.707 172.658 20.6152 170.236 21.2207L179.787 34.668C181.037 36.4062 181.926 37.4902 182.453 37.9199C183.254 38.5254 184.182 38.8574 185.236 38.916V40H172.727L159.924 21.8945H157.316ZM157.316 2.41211V19.8145H158.986C161.701 19.8145 163.732 19.5703 165.08 19.082C166.428 18.5742 167.482 17.6758 168.244 16.3867C169.025 15.0781 169.416 13.3789 169.416 11.2891C169.416 8.26172 168.703 6.02539 167.277 4.58008C165.871 3.13477 163.596 2.41211 160.451 2.41211H157.316Z" fill="#1B78DE"/>
</svg>
